<?xml version="1.0" encoding="UTF-8"?>
<!--Generator: Apple Native CoreSVG 341-->
<!DOCTYPE svg
PUBLIC "-//W3C//DTD SVG 1.1//EN"
       "http://www.w3.org/Graphics/SVG/1.1/DTD/svg11.dtd">
<svg version="1.1" xmlns="http://www.w3.org/2000/svg" xmlns:xlink="http://www.w3.org/1999/xlink" viewBox="0 0 128.688 155.157">
 <g>
  <rect height="155.157" opacity="0" width="128.688" x="0" y="0"/>
  <path d="M90.0625 153.297C92.1875 155.672 95.875 155.922 98.5 153.172C117.562 133.422 128.688 106.922 128.688 77.8597C128.688 48.7347 117.812 21.9222 98.5 2.48466C95.875-0.265339 92.1875 0.0471606 90.0625 2.35966C87.9375 4.73466 88.375 8.10966 90.875 10.7347C108.062 27.9847 117.5 51.7347 117.5 77.8597C117.5 103.922 107.812 127.36 90.875 144.922C88.375 147.547 87.9375 150.985 90.0625 153.297Z" fill="black" fill-opacity="0.85"/>
  <path d="M67 132.047C69.25 134.61 73.0625 134.61 75.6875 131.735C89 117.485 96.6875 98.4847 96.6875 77.8597C96.6875 57.1722 89.1875 38.0472 75.6875 23.9847C73.0625 21.1097 69.1875 21.1097 67 23.6722C64.8125 26.1097 65.5 29.3597 68 32.1097C79.3125 44.0472 85.5 60.1722 85.5 77.8597C85.5 95.4847 79.125 111.422 68 123.547C65.5 126.297 64.8125 129.547 67 132.047Z" fill="black" fill-opacity="0.85"/>
  <path d="M44.6875 109.297C46.9375 111.86 51.0625 111.922 53.5 108.86C60.625 100.422 64.6875 89.5472 64.6875 77.8597C64.6875 66.1722 60.625 55.2347 53.5 46.8597C51.0625 43.7347 46.9375 43.7972 44.6875 46.4222C42.5 48.8597 43.4375 51.9222 45.625 54.8597C50.75 61.0472 53.5 69.0472 53.5 77.8597C53.5 86.6097 50.875 94.7347 45.625 100.797C43.4375 103.672 42.5 106.797 44.6875 109.297Z" fill="black" fill-opacity="0.85"/>
  <path d="M0 77.7347C0 85.2972 6.625 91.7347 14.4375 91.7347C22.25 91.7347 28.6875 85.2972 28.6875 77.5472C28.6875 69.6097 22.3125 63.1722 14.4375 63.1722C6.5625 63.1722 0 69.8597 0 77.7347Z" fill="black" fill-opacity="0.85"/>
 </g>
</svg>
